# xmcd
# 
# Track frame offsets:
#     150
#     24571
#     40156
#     59996
#     94232
#     120210
#     143324
#     165419
#     183251
#     201549
#     205236
#     232848
#     247878
#     258355
#     268474
#     284966
#     307055
#     325992
# 
# Disc length: 4550
# 
# Revision: 0
# Processed by: cddbd v1.5.2PL0 Copyright (c) Steve Scherf et al.
# Submitted via: BonkEnc v1.0.8
# 
DISCID=0e11c412
DTITLE=Fleetwood Mac - Blues Jam In Chicago
DYEAR=1969
DGENRE=Blues
TTITLE0=World's In A Tangle
TTITLE1=Talk With You
TTITLE2=Like It This Way
TTITLE3=Someday Soon Baby
TTITLE4=Hungry Country Girl
TTITLE5=Black Jack Blues
TTITLE6=Everyday I Have The Blues
TTITLE7=Rockin' Boogie
TTITLE8=My Baby's Gone
TTITLE9=Sugar Mama (Take 1)
TTITLE10=Sugar Mama
TTITLE11=Homework
TTITLE12=Honey Boy Blues
TTITLE13=I Need Your Love (Take 1)
TTITLE14=Horton's Boogie Woogie (Take 2)
TTITLE15=Have A Good Time
TTITLE16=That's Wrong
TTITLE17=Rock Me Baby
EXTD=
EXTT0=(Blue Horizon LP 7-66227/63220]\n
EXTT1=(Blue Horizon LP 7-66227/63220)
EXTT2=(Blue Horizon LP 7-66227/63220)
EXTT3=(Blue Horizon LP 7-66227/63220)
EXTT4=(Blue Horizon LP 7-66227/63220)
EXTT5=(Blue Horizon LP 7-66227/63220)
EXTT6=(Blue Horizon LP 7-66227/63220)
EXTT7=(Blue Horizon LP 7-66227/63220)
EXTT8=(Blue Horizon LP 7-66227/63220]\n
EXTT9=* take 1 - previously unissued/incomplete
EXTT10=(Blue Horizon LP 7-66227/63220)
EXTT11=(Blue Horizon LP 7-66227/63220)
EXTT12=* previously unissued
EXTT13=* take 1 - previously unissued/incomplete
EXTT14=* take 2 - previously unissued
EXTT15=* previously unissued
EXTT16=* previously unissued
EXTT17=* previously unissued
PLAYORDER=
